<svg xmlns="http://www.w3.org/2000/svg" width="64" height="64" viewBox="0 0 64 64" role="img" aria-label="Taiwan Airline Data">
  <rect width="64" height="64" rx="16" fill="#1a5dba"/>
  <path
    d="M42.2 48.5 38.7 32l8.1-8.1c3.5-3.5 3.5-8.2-.2-11.9-3.7-3.7-8.4-3.8-11.9-.3l-8.1 8.1-16.4-3.5c-1-.2-2 .1-2.7.8l-1.2 1.2c-1.4 1.4-1.2 3.7.4 4.8l9.4 6.5-4.2 4.2-5.1-.8c-1.1-.2-2.2.4-2.8 1.3l-1 1.6c-.7 1.2-.5 2.7.5 3.7l4 4 4 4c1 1 2.5 1.2 3.7.5l1.6-1c1-.6 1.5-1.7 1.3-2.8l-.8-5.1 4.2-4.2 6.5 9.4c1.1 1.6 3.4 1.8 4.8.4l1.2-1.2c.7-.7 1-1.7.8-2.7z"
    fill="none"
    stroke="#fff"
    stroke-width="4.6"
    stroke-linecap="round"
    stroke-linejoin="round"
  />
</svg>
