<svg xmlns="http://www.w3.org/2000/svg" width="1200" height="630" viewBox="0 0 1200 630" role="img" aria-label="台灣航空載客率分析">
  <defs>
    <linearGradient id="bg" x1="0" y1="0" x2="1" y2="1">
      <stop offset="0" stop-color="#0f5da8"/>
      <stop offset="0.58" stop-color="#1e88e5"/>
      <stop offset="1" stop-color="#58c7f3"/>
    </linearGradient>
    <linearGradient id="line" x1="0" y1="0" x2="1" y2="0">
      <stop offset="0" stop-color="#c7ecff" stop-opacity="0.25"/>
      <stop offset="1" stop-color="#ffffff" stop-opacity="0.9"/>
    </linearGradient>
  </defs>
  <rect width="1200" height="630" fill="url(#bg)"/>
  <circle cx="1030" cy="120" r="260" fill="#ffffff" opacity="0.08"/>
  <circle cx="220" cy="520" r="220" fill="#063f7f" opacity="0.22"/>
  <path d="M116 462C326 210 524 142 842 156" fill="none" stroke="url(#line)" stroke-width="8" stroke-linecap="round"/>
  <path d="M143 501C402 346 588 324 996 256" fill="none" stroke="#ffffff" stroke-width="5" stroke-linecap="round" opacity="0.55"/>
  <path d="M156 415C396 420 588 482 1056 372" fill="none" stroke="#b9ecff" stroke-width="5" stroke-linecap="round" opacity="0.45"/>
  <g transform="translate(920 118) rotate(12)">
    <path d="M143 38c14 14 9 38-10 45l-88 37 49 133-30 30-76-117-73 30 9 55-23 23-34-68-68-34 23-23 55 9 30-73-117-76 30-30 133 49 37-88c7-19 31-24 45-10L143 38Z" fill="#ffffff"/>
  </g>
  <text x="92" y="185" fill="#ffffff" font-family="Arial, 'Noto Sans TC', sans-serif" font-size="72" font-weight="800">台灣航空載客率分析</text>
  <text x="96" y="268" fill="#e9f8ff" font-family="Arial, 'Noto Sans TC', sans-serif" font-size="34" font-weight="600">中華航空 · 長榮航空 · 星宇航空 · 台灣虎航</text>
  <text x="96" y="352" fill="#ffffff" font-family="Arial, 'Noto Sans TC', sans-serif" font-size="42" font-weight="700">每月航線、航點與載客率視覺化</text>
  <text x="96" y="420" fill="#d7f4ff" font-family="Arial, 'Noto Sans TC', sans-serif" font-size="28">依交通部民用航空局公開資料整理</text>
</svg>
